<?xml version="1.0" standalone="no"?>
<!DOCTYPE svg PUBLIC "-//W3C//DTD SVG 20010904//EN"
 "http://www.w3.org/TR/2001/REC-SVG-20010904/DTD/svg10.dtd">
<svg version="1.0" xmlns="http://www.w3.org/2000/svg"
 width="500.000000pt" height="500.000000pt" viewBox="0 0 500.000000 500.000000"
 preserveAspectRatio="xMidYMid meet">
<metadata>
Created by potrace 1.11, written by Peter Selinger 2001-2013
</metadata>
<g transform="translate(0.000000,500.000000) scale(0.100000,-0.100000)"
fill="#000000" stroke="none">
<path d="M660 2460 l0 -740 176 0 176 0 -5 503 c-3 276 -8 516 -12 532 -5 20
-4 27 3 20 8 -8 302 -1029 302 -1049 0 -4 87 -5 192 -4 l193 3 147 523 c80
288 148 525 150 527 2 2 1 -235 0 -526 l-4 -529 181 0 181 0 0 740 0 740 -265
0 -264 0 -20 -67 c-11 -38 -79 -273 -151 -522 -72 -250 -133 -457 -135 -459
-6 -6 4 -38 -150 488 -75 256 -143 486 -151 513 l-16 47 -264 0 -264 0 0 -740z"/>
<path d="M3260 2461 l0 -741 200 0 200 0 0 270 0 270 49 0 49 0 158 -270 157
-270 224 0 c122 0 223 3 223 6 0 3 -92 143 -205 310 -113 167 -208 310 -211
317 -3 8 15 26 45 45 143 93 213 251 191 428 -24 184 -144 301 -360 349 -58
13 -148 18 -397 22 l-323 5 0 -741z m587 418 c18 -6 46 -26 64 -46 29 -34 31
-40 27 -104 -4 -81 -24 -114 -88 -146 -34 -18 -61 -23 -117 -23 l-73 0 0 171
0 171 78 -6 c42 -4 91 -12 109 -17z"/>
<path d="M2695 2061 c-75 -35 -105 -85 -105 -178 0 -117 76 -185 207 -185 106
0 158 29 194 107 34 72 16 180 -37 227 -56 49 -184 64 -259 29z"/>
</g>
</svg>
